<svg width="200" height="60" viewBox="0 0 200 60" fill="none" xmlns="http://www.w3.org/2000/svg" style="width: 235px;height: auto;">
    <rect width="200" height="60" fill="#F6EEFF" />
    <rect y="50" width="200" height="10" fill="#DFD1FF" />
    <rect x="14" y="9" width="28" height="4" fill="#7F56D9" />
    <rect x="14" y="16" width="28" height="4" fill="#7F56D9" />
    <rect x="14" y="23" width="28" height="4" fill="#7F56D9" />
    <rect x="14" y="30" width="28" height="4" fill="#7F56D9" />
    <rect x="14" y="37" width="28" height="4" fill="#7F56D9" />
    <rect x="86" y="9" width="28" height="4" fill="#7F56D9" />
    <rect x="86" y="16" width="28" height="4" fill="#7F56D9" />
    <rect x="86" y="23" width="28" height="4" fill="#7F56D9" />
    <rect x="86" y="30" width="28" height="4" fill="#7F56D9" />
    <rect x="86" y="37" width="28" height="4" fill="#7F56D9" />
    <rect x="50" y="9" width="28" height="4" fill="#7F56D9" />
    <rect x="50" y="16" width="28" height="4" fill="#7F56D9" />
    <rect x="50" y="23" width="28" height="4" fill="#7F56D9" />
    <rect x="50" y="30" width="28" height="4" fill="#7F56D9" />
    <rect x="50" y="37" width="28" height="4" fill="#7F56D9" />
    <rect x="122" y="9" width="28" height="4" fill="#7F56D9" />
    <rect x="122" y="16" width="28" height="4" fill="#7F56D9" />
    <rect x="122" y="23" width="28" height="4" fill="#7F56D9" />
    <rect x="122" y="30" width="28" height="4" fill="#7F56D9" />
    <rect x="122" y="37" width="28" height="4" fill="#7F56D9" />
    <rect x="158" y="9" width="28" height="4" fill="#7F56D9" />
    <rect x="158" y="16" width="28" height="4" fill="#7F56D9" />
    <rect x="158" y="23" width="28" height="4" fill="#7F56D9" />
    <rect x="158" y="30" width="28" height="4" fill="#7F56D9" />
    <rect x="158" y="37" width="28" height="4" fill="#7F56D9" />
</svg>