<svg width="200" height="43" viewBox="0 0 200 43" fill="none" xmlns="http://www.w3.org/2000/svg"  style="width: 222px;height: auto;">
<rect width="200" height="43" fill="#F6EEFF"/>
<rect width="200" height="10" fill="#7F56D9"/>
<rect x="42.5" y="22.5" width="19" height="5" fill="white" stroke="#DFC3FF"/>
<rect x="65.5" y="22.5" width="19" height="5" fill="white" stroke="#DFC3FF"/>
<rect x="88.5" y="22.5" width="19" height="5" fill="white" stroke="#DFC3FF"/>
<rect x="111.5" y="22.5" width="19" height="5" fill="white" stroke="#DFC3FF"/>
<rect x="136.5" y="22.5" width="19" height="5" fill="white" stroke="#DFC3FF"/>
<rect x="168" y="22" width="20" height="6" fill="#7F56D9"/>
<path d="M6.50574 28V22.1818H7.73585V26.9858H10.2302V28H6.50574Z" fill="#7F56D9"/>
<path d="M16.1648 25.0909C16.1648 25.7254 16.0446 26.2652 15.804 26.7102C15.5654 27.1553 15.2396 27.4953 14.8268 27.7301C14.4158 27.9631 13.9537 28.0796 13.4404 28.0796C12.9234 28.0796 12.4593 27.9621 12.0484 27.7273C11.6374 27.4924 11.3126 27.1525 11.0739 26.7074C10.8353 26.2623 10.716 25.7235 10.716 25.0909C10.716 24.4565 10.8353 23.9167 11.0739 23.4716C11.3126 23.0265 11.6374 22.6875 12.0484 22.4546C12.4593 22.2197 12.9234 22.1023 13.4404 22.1023C13.9537 22.1023 14.4158 22.2197 14.8268 22.4546C15.2396 22.6875 15.5654 23.0265 15.804 23.4716C16.0446 23.9167 16.1648 24.4565 16.1648 25.0909ZM14.9177 25.0909C14.9177 24.6799 14.8561 24.3334 14.733 24.0512C14.6118 23.769 14.4404 23.5549 14.2188 23.4091C13.9972 23.2633 13.7377 23.1904 13.4404 23.1904C13.143 23.1904 12.8836 23.2633 12.662 23.4091C12.4404 23.5549 12.268 23.769 12.1449 24.0512C12.0237 24.3334 11.9631 24.6799 11.9631 25.0909C11.9631 25.5019 12.0237 25.8485 12.1449 26.1307C12.268 26.4129 12.4404 26.6269 12.662 26.7727C12.8836 26.9186 13.143 26.9915 13.4404 26.9915C13.7377 26.9915 13.9972 26.9186 14.2188 26.7727C14.4404 26.6269 14.6118 26.4129 14.733 26.1307C14.8561 25.8485 14.9177 25.5019 14.9177 25.0909Z" fill="#7F56D9"/>
<path d="M20.934 24.0625C20.8942 23.9243 20.8384 23.8021 20.7664 23.696C20.6944 23.5881 20.6064 23.4972 20.5022 23.4233C20.3999 23.3476 20.2825 23.2898 20.1499 23.25C20.0192 23.2102 19.8743 23.1904 19.7153 23.1904C19.4179 23.1904 19.1565 23.2642 18.9312 23.412C18.7077 23.5597 18.5334 23.7746 18.4084 24.0568C18.2834 24.3371 18.2209 24.6799 18.2209 25.0852C18.2209 25.4906 18.2825 25.8352 18.4056 26.1193C18.5287 26.4034 18.7029 26.6203 18.9283 26.7699C19.1537 26.9176 19.4198 26.9915 19.7266 26.9915C20.005 26.9915 20.2427 26.9423 20.4397 26.8438C20.6385 26.7434 20.7901 26.6023 20.8942 26.4205C21.0003 26.2387 21.0533 26.0237 21.0533 25.7756L21.3033 25.8125H19.8033V24.8864H22.238V25.6193C22.238 26.1307 22.13 26.5701 21.9141 26.9375C21.6982 27.3031 21.4009 27.5852 21.0221 27.7841C20.6433 27.9811 20.2096 28.0796 19.7209 28.0796C19.1755 28.0796 18.6963 27.9593 18.2834 27.7188C17.8706 27.4763 17.5486 27.1326 17.3175 26.6875C17.0884 26.2406 16.9738 25.7102 16.9738 25.0966C16.9738 24.625 17.042 24.2046 17.1783 23.8352C17.3166 23.464 17.5098 23.1496 17.7579 22.8921C18.006 22.6345 18.2948 22.4385 18.6243 22.304C18.9539 22.1695 19.3109 22.1023 19.6954 22.1023C20.0249 22.1023 20.3317 22.1506 20.6158 22.2472C20.8999 22.3419 21.1518 22.4763 21.3715 22.6506C21.5931 22.8248 21.774 23.0322 21.9141 23.2727C22.0543 23.5114 22.1442 23.7746 22.184 24.0625H20.934Z" fill="#7F56D9"/>
<path d="M28.5086 25.0909C28.5086 25.7254 28.3883 26.2652 28.1478 26.7102C27.9091 27.1553 27.5834 27.4953 27.1705 27.7301C26.7595 27.9631 26.2974 28.0796 25.7841 28.0796C25.2671 28.0796 24.8031 27.9621 24.3921 27.7273C23.9811 27.4924 23.6563 27.1525 23.4177 26.7074C23.179 26.2623 23.0597 25.7235 23.0597 25.0909C23.0597 24.4565 23.179 23.9167 23.4177 23.4716C23.6563 23.0265 23.9811 22.6875 24.3921 22.4546C24.8031 22.2197 25.2671 22.1023 25.7841 22.1023C26.2974 22.1023 26.7595 22.2197 27.1705 22.4546C27.5834 22.6875 27.9091 23.0265 28.1478 23.4716C28.3883 23.9167 28.5086 24.4565 28.5086 25.0909ZM27.2614 25.0909C27.2614 24.6799 27.1999 24.3334 27.0768 24.0512C26.9555 23.769 26.7841 23.5549 26.5626 23.4091C26.341 23.2633 26.0815 23.1904 25.7841 23.1904C25.4868 23.1904 25.2273 23.2633 25.0057 23.4091C24.7841 23.5549 24.6118 23.769 24.4887 24.0512C24.3675 24.3334 24.3069 24.6799 24.3069 25.0909C24.3069 25.5019 24.3675 25.8485 24.4887 26.1307C24.6118 26.4129 24.7841 26.6269 25.0057 26.7727C25.2273 26.9186 25.4868 26.9915 25.7841 26.9915C26.0815 26.9915 26.341 26.9186 26.5626 26.7727C26.7841 26.6269 26.9555 26.4129 27.0768 26.1307C27.1999 25.8485 27.2614 25.5019 27.2614 25.0909Z" fill="#7F56D9"/>
</svg>
