<svg width="90" height="90" viewBox="0 0 90 90" fill="none" xmlns="http://www.w3.org/2000/svg">
<path d="M41.2626 53.3438H0.00069809V55.9688H41.2626V53.3438Z" fill="white"/>
<path d="M72.6216 55.9687H83.4951C87.0872 55.9687 89.9999 53.1561 89.9999 49.6875V34.875C89.9999 30.6564 88.3496 26.7189 85.2425 23.8128C82.233 20.9067 78.2523 19.313 73.9803 19.2189L56.7957 18.9377L37.1842 2.25017C35.437 0.843533 33.2035 0 30.9706 0H-6.10352e-05V2.625H30.9706C32.621 2.625 34.1745 3.1874 35.437 4.21867L55.631 21.5624L73.8834 21.8436C77.4754 21.9371 80.7769 23.2496 83.3008 25.6875C85.8249 28.1249 87.2815 31.4063 87.2815 34.969V49.7815C87.2815 51.7506 85.6311 53.4377 83.4951 53.4377H72.6216V55.9687Z" fill="white"/>
<path d="M6.31147 24.4687L40.486 23.9063C41.554 23.9063 42.5252 23.2497 42.9132 22.3126C43.3013 21.3748 43.1076 20.2501 42.3308 19.5942L32.1365 9.75028C30.2917 7.96886 27.8645 7.03186 25.243 7.03186H6.31106C4.85504 7.03186 3.68954 8.15666 3.68954 9.56328V21.9386C3.59269 23.3439 4.85438 24.4687 6.31106 24.4687L6.31147 24.4687ZM40.2919 21.3749L6.40856 21.9373V9.65624H25.2434C27.0882 9.65624 28.8354 10.3128 30.1947 11.6253L40.2919 21.3749Z" fill="white"/>
<path d="M57.0877 70.125C66.5051 70.125 74.1748 62.7191 74.1748 53.6251C74.1748 44.5314 66.5053 37.1253 57.0877 37.1253C47.6701 37.1253 40.0006 44.5312 40.0006 53.6251C40.0006 62.7189 47.6701 70.125 57.0877 70.125ZM57.0877 39.75C65.0491 39.75 71.4563 46.0312 71.4563 53.6248C71.4563 61.2184 64.9515 67.4997 57.0877 67.4997C49.2238 67.4997 42.719 61.2184 42.719 53.6248C42.719 46.0312 49.1262 39.75 57.0877 39.75Z" fill="white"/>
<path d="M57.0877 61.3124C61.4565 61.3124 65.0492 57.8439 65.0492 53.6246C65.0492 49.406 61.4572 45.9368 57.0877 45.9368C52.719 45.9368 49.1263 49.4054 49.1263 53.6246C49.1263 57.8432 52.719 61.3124 57.0877 61.3124ZM57.0877 48.6559C60.0005 48.6559 62.3301 50.906 62.3301 53.718C62.3301 56.5307 59.9998 58.7802 57.0877 58.7802C54.1749 58.7802 51.8454 56.53 51.8454 53.718C51.8454 50.906 54.1751 48.6559 57.0877 48.6559Z" fill="white"/>
<path d="M24.3695 82.4063L32.3303 73.5936L26.5054 61.4995L24.0782 62.625L29.1262 73.1248L22.3303 80.7184L24.3695 82.4063Z" fill="white"/>
<path d="M19.3209 82.4063L21.3601 80.7184L14.4666 73.1249L19.5153 62.625L17.0881 61.4996L11.3595 73.5937L19.3209 82.4063Z" fill="white"/>
<path d="M11.1658 90H32.4278C33.5926 90 34.4669 89.0623 34.4669 88.031V82.6869C34.4669 81.5621 33.4958 80.7178 32.4278 80.7178H11.1658C10.0009 80.7178 9.12659 81.6555 9.12659 82.6869V88.031C9.12659 89.0622 10.0977 90 11.1658 90ZM31.8453 87.375H11.8454V83.2499H31.8453V87.375Z" fill="white"/>
<path d="M11.1658 63.0937H32.4278C33.5926 63.0937 34.4669 62.156 34.4669 61.1246V55.7805C34.4669 54.6557 33.4958 53.8115 32.4278 53.8115H11.1658C10.0009 53.8115 9.12659 54.7492 9.12659 55.7805V61.1246C9.12659 62.1566 10.0977 63.0937 11.1658 63.0937ZM31.8453 60.4687H11.8454V56.3436L31.8453 56.3442V60.4687Z" fill="white"/>
</svg>
