<svg width="28" height="28" viewBox="0 0 28 28" fill="none" xmlns="http://www.w3.org/2000/svg">
<path d="M18.6667 24.5V5.83333C18.6667 5.21449 18.4208 4.621 17.9833 4.18342C17.5457 3.74583 16.9522 3.5 16.3333 3.5H11.6667C11.0478 3.5 10.4543 3.74583 10.0168 4.18342C9.57917 4.621 9.33334 5.21449 9.33334 5.83333V24.5M4.66667 8.16667H23.3333C24.622 8.16667 25.6667 9.21134 25.6667 10.5V22.1667C25.6667 23.4553 24.622 24.5 23.3333 24.5H4.66667C3.378 24.5 2.33334 23.4553 2.33334 22.1667V10.5C2.33334 9.21134 3.378 8.16667 4.66667 8.16667Z" stroke="white" stroke-width="2.33" stroke-linecap="round" stroke-linejoin="round"/>
</svg>
