<svg width="90" height="90" viewBox="0 0 90 90" fill="none" xmlns="http://www.w3.org/2000/svg">
<path d="M84.3747 45.0008C84.3735 38.6601 82.8379 32.4136 79.8992 26.7934C76.9612 21.1746 72.7066 16.3501 67.4998 12.7315V12.6561C67.4979 10.7915 66.7565 9.00423 65.4388 7.68588C64.1204 6.36815 62.3331 5.62681 60.4685 5.62488H53.2722C52.3927 3.39994 50.6537 1.6234 48.4483 0.695433C46.2428 -0.231811 43.7569 -0.231811 41.5514 0.695433C39.3459 1.6233 37.6076 3.39994 36.728 5.62488H29.5311C27.6665 5.62676 25.8792 6.36818 24.5609 7.68588C23.2431 9.00424 22.5018 10.7915 22.4999 12.6561V12.7233C17.2935 16.3444 13.0398 21.1703 10.1016 26.7909C7.16294 32.4109 5.62732 38.658 5.62491 44.9998C3.61534 44.9998 1.75829 46.0721 0.753347 47.8124C-0.251116 49.5526 -0.251116 51.6971 0.753347 53.4374C1.75844 55.1776 3.6155 56.2499 5.62491 56.2499H8.4374V60.9715C8.4374 61.3444 8.58556 61.7023 8.84923 61.9659C9.1129 62.2296 9.47074 62.3778 9.84365 62.3778H14.7819C15.4084 64.4954 16.2553 66.5419 17.3088 68.483L13.8183 71.9742C13.5546 72.2379 13.4058 72.5957 13.4058 72.9686C13.4058 73.3415 13.5546 73.6988 13.8183 73.9624L24.475 84.6167C24.7387 84.8804 25.0959 85.0285 25.4688 85.0285C25.8417 85.0285 26.1996 84.8804 26.4633 84.6167L29.9544 81.1255C31.8949 82.1814 33.9416 83.029 36.0596 83.6555V88.5937C36.0596 88.9667 36.2078 89.3245 36.4715 89.5882C36.7351 89.8518 37.093 90 37.4659 90H52.5335C52.907 90 53.2648 89.8518 53.5285 89.5882C53.7922 89.3245 53.9403 88.9667 53.9397 88.5937V83.6555C56.0586 83.0289 58.1051 82.1814 60.0456 81.1255L63.5367 84.6167C63.8004 84.8804 64.1576 85.0285 64.5305 85.0285C64.9034 85.0285 65.2613 84.8804 65.5249 84.6167L76.1817 73.9624C76.4454 73.6988 76.5936 73.3415 76.5936 72.9686C76.5936 72.5957 76.4454 72.2379 76.1817 71.9742L72.6912 68.483C73.7446 66.5419 74.5915 64.4954 75.2181 62.3778H80.1563C80.5293 62.3778 80.8871 62.2296 81.1508 61.9659C81.4144 61.7023 81.5626 61.3444 81.5626 60.9715V56.2499H84.3751C86.3847 56.2499 88.2417 55.1776 89.2467 53.4374C90.2511 51.6971 90.2511 49.5526 89.2467 47.8124C88.2416 46.0721 86.3845 44.9998 84.3751 44.9998L84.3747 45.0008ZM22.4999 16.265V26.719C22.4999 27.4956 23.1295 28.1252 23.9061 28.1252C24.6827 28.1252 25.3124 27.4956 25.3124 26.719V12.6564C25.3136 11.5377 25.7587 10.4654 26.5491 9.67437C27.3401 8.88397 28.4124 8.43887 29.5312 8.43762H36.0569L33.7523 40.6818C33.7259 41.0547 33.849 41.422 34.0932 41.7039C34.338 41.9858 34.6852 42.1584 35.0575 42.1848C35.8234 42.2124 36.4801 41.6424 36.5598 40.8796L38.8726 8.51645V8.51708C39.0214 6.43148 40.2211 4.56574 42.0562 3.56385C43.8906 2.56189 46.1092 2.56189 47.9443 3.56385C49.7787 4.56581 50.9784 6.43164 51.1279 8.51708L53.4401 40.8802C53.4928 41.6154 54.1036 42.1854 54.8413 42.1873C54.8771 42.1873 54.9097 42.1873 54.943 42.1848H54.9424C55.3146 42.1584 55.6618 41.9858 55.9066 41.7039C56.1509 41.422 56.2739 41.0541 56.2475 40.6818L53.9429 8.43762H60.4687C61.5874 8.43887 62.6597 8.88397 63.4507 9.67437C64.2411 10.4654 64.6862 11.5377 64.6875 12.6564V26.719C64.6875 27.4955 65.3171 28.1252 66.0937 28.1252C66.8703 28.1252 67.5 27.4955 67.5 26.719V16.2613C71.8738 19.6676 75.4138 24.0264 77.8503 29.0067C80.2867 33.9863 81.5567 39.4564 81.5624 45.0004H8.43759C8.44513 39.4571 9.71514 33.9883 12.1515 29.0093C14.5886 24.0304 18.1275 19.6721 22.5001 16.2651L22.4999 16.265ZM78.7498 59.5664H74.1461C73.5051 59.5664 72.9451 60.0002 72.7844 60.621C72.1165 63.2145 71.087 65.7017 69.7272 68.0096C69.4013 68.5614 69.4905 69.2645 69.9444 69.7178L73.1988 72.9697L64.5309 81.6351L61.279 78.3832C60.8276 77.9256 60.122 77.8364 59.5708 78.166C57.2631 79.5264 54.7757 80.5554 52.1823 81.2233C51.5614 81.384 51.1276 81.944 51.1276 82.5856V87.1886H38.8719V82.585C38.8719 81.944 38.4381 81.384 37.8172 81.2233C35.2237 80.5553 32.7365 79.5258 30.4287 78.166C29.8769 77.8389 29.1731 77.9281 28.7204 78.3832L25.4686 81.6351L16.8006 72.9697L20.0551 69.7178C20.509 69.2645 20.5987 68.5614 20.2723 68.0089C18.9125 65.7019 17.8836 63.2145 17.2155 60.6204C17.0548 59.9995 16.4942 59.5663 15.8532 59.5657H11.2496V56.2509H26.8533C27.5451 62.2395 31.1467 67.5016 36.4792 70.3135C41.8117 73.1254 48.1876 73.1254 53.5197 70.3135C58.8519 67.5016 62.4538 62.2395 63.1457 56.2509H78.7494L78.7498 59.5664ZM29.7481 56.251H60.2516C59.5905 61.2232 56.5482 65.5605 52.0986 67.8745C47.6487 70.1891 42.3503 70.1891 37.9004 67.8745C33.4506 65.5605 30.4084 61.223 29.7474 56.251H29.7481ZM84.3747 53.4385H5.62491C4.61982 53.4385 3.69136 52.9023 3.18913 52.0322C2.6869 51.1621 2.6869 50.0898 3.18913 49.2197C3.69136 48.3496 4.61985 47.8134 5.62491 47.8134H84.3747C85.3798 47.8134 86.3083 48.3496 86.8105 49.2197C87.3128 50.0898 87.3128 51.1621 86.8105 52.0322C86.3083 52.9023 85.3798 53.4385 84.3747 53.4385Z" fill="white"/>
</svg>
