<svg width="91" height="21" viewBox="0 0 91 21" fill="none" xmlns="http://www.w3.org/2000/svg">
<path d="M16.0228 2.63143V19.9862H11.7954V12.8416H5.21938V19.9862H0.991943V2.63143H5.21938V9.42994H11.7954V2.63143H16.0228Z" fill="white"/>
<path d="M21.2007 4.75751C20.4591 4.75751 19.8493 4.54325 19.3713 4.11474C18.9098 3.66975 18.6791 3.12586 18.6791 2.4831C18.6791 1.82385 18.9098 1.27996 19.3713 0.851451C19.8493 0.406457 20.4591 0.18396 21.2007 0.18396C21.9259 0.18396 22.5192 0.406457 22.9807 0.851451C23.4587 1.27996 23.6976 1.82385 23.6976 2.4831C23.6976 3.12586 23.4587 3.66975 22.9807 4.11474C22.5192 4.54325 21.9259 4.75751 21.2007 4.75751ZM23.3021 6.19138V19.9862H19.0746V6.19138H23.3021Z" fill="white"/>
<path d="M28.4917 4.75751C27.7501 4.75751 27.1403 4.54325 26.6623 4.11474C26.2009 3.66975 25.9701 3.12586 25.9701 2.4831C25.9701 1.82385 26.2009 1.27996 26.6623 0.851451C27.1403 0.406457 27.7501 0.18396 28.4917 0.18396C29.2169 0.18396 29.8102 0.406457 30.2717 0.851451C30.7497 1.27996 30.9887 1.82385 30.9887 2.4831C30.9887 3.12586 30.7497 3.66975 30.2717 4.11474C29.8102 4.54325 29.2169 4.75751 28.4917 4.75751ZM30.5931 6.19138V19.9862H26.3657V6.19138H30.5931Z" fill="white"/>
<path d="M44.1635 11.0863C45.1688 11.3006 45.9764 11.8032 46.5862 12.5943C47.196 13.369 47.5009 14.2589 47.5009 15.2643C47.5009 16.7147 46.99 17.8683 45.9682 18.7254C44.9628 19.5659 43.5537 19.9862 41.7407 19.9862H33.6567V2.63143H41.4688C43.2323 2.63143 44.6085 3.03522 45.5974 3.8428C46.6027 4.65038 47.1054 5.74638 47.1054 7.13081C47.1054 8.15265 46.8334 9.00143 46.2896 9.67716C45.7622 10.3529 45.0535 10.8226 44.1635 11.0863ZM37.8841 9.65244H40.653C41.3452 9.65244 41.8726 9.50411 42.2352 9.20745C42.6142 8.8943 42.8038 8.44107 42.8038 7.84774C42.8038 7.25442 42.6142 6.80118 42.2352 6.48804C41.8726 6.1749 41.3452 6.01832 40.653 6.01832H37.8841V9.65244ZM40.9991 16.5746C41.7078 16.5746 42.2517 16.418 42.6307 16.1048C43.0263 15.7752 43.2241 15.3055 43.2241 14.6957C43.2241 14.0859 43.018 13.6079 42.606 13.2618C42.2105 12.9157 41.6583 12.7427 40.9496 12.7427H37.8841V16.5746H40.9991Z" fill="white"/>
<path d="M56.2322 20.184C54.8807 20.184 53.6611 19.8955 52.5734 19.3187C51.5021 18.7418 50.6533 17.9178 50.027 16.8465C49.4172 15.7752 49.1123 14.5227 49.1123 13.0888C49.1123 11.6714 49.4254 10.4271 50.0517 9.35578C50.678 8.26801 51.535 7.43571 52.6228 6.85887C53.7106 6.28202 54.9302 5.9936 56.2816 5.9936C57.6331 5.9936 58.8527 6.28202 59.9405 6.85887C61.0282 7.43571 61.8853 8.26801 62.5116 9.35578C63.1379 10.4271 63.451 11.6714 63.451 13.0888C63.451 14.5062 63.1296 15.7587 62.4868 16.8465C61.8605 17.9178 60.9953 18.7418 59.891 19.3187C58.8033 19.8955 57.5837 20.184 56.2322 20.184ZM56.2322 16.5251C57.0398 16.5251 57.7238 16.2285 58.2841 15.6351C58.861 15.0418 59.1494 14.193 59.1494 13.0888C59.1494 11.9845 58.8692 11.1358 58.3088 10.5424C57.765 9.9491 57.0892 9.65244 56.2816 9.65244C55.4576 9.65244 54.7736 9.9491 54.2297 10.5424C53.6859 11.1193 53.4139 11.9681 53.4139 13.0888C53.4139 14.193 53.6776 15.0418 54.205 15.6351C54.7489 16.2285 55.4246 16.5251 56.2322 16.5251Z" fill="white"/>
<path d="M71.3056 20.184C70.1025 20.184 69.0312 19.9779 68.0918 19.5659C67.1523 19.1539 66.4107 18.5935 65.8668 17.8848C65.3229 17.1597 65.018 16.3521 64.9521 15.4621H69.1301C69.1795 15.94 69.402 16.3273 69.7976 16.624C70.1931 16.9207 70.6793 17.069 71.2561 17.069C71.7835 17.069 72.1873 16.9701 72.4675 16.7723C72.7642 16.5581 72.9125 16.2861 72.9125 15.9565C72.9125 15.561 72.7065 15.2725 72.2945 15.0913C71.8824 14.8935 71.215 14.6792 70.292 14.4485C69.3031 14.2177 68.4791 13.9788 67.8198 13.7315C67.1606 13.4678 66.592 13.0641 66.114 12.5202C65.636 11.9598 65.3971 11.2099 65.3971 10.2705C65.3971 9.47939 65.6113 8.76245 66.0398 8.11968C66.4848 7.46043 67.1276 6.94127 67.9681 6.5622C68.8252 6.18314 69.8388 5.9936 71.0089 5.9936C72.7395 5.9936 74.0992 6.42211 75.088 7.27914C76.0934 8.13616 76.6702 9.27337 76.8186 10.6908H72.9125C72.8466 10.2128 72.6323 9.83373 72.2697 9.55355C71.9236 9.27337 71.4622 9.13328 70.8853 9.13328C70.3909 9.13328 70.0118 9.23217 69.7481 9.42994C69.4844 9.61124 69.3526 9.8667 69.3526 10.1963C69.3526 10.5919 69.5586 10.8885 69.9706 11.0863C70.3991 11.2841 71.0584 11.4819 71.9484 11.6796C72.9702 11.9433 73.8025 12.207 74.4453 12.4707C75.088 12.718 75.6484 13.13 76.1264 13.7068C76.6208 14.2672 76.8763 15.0253 76.8927 15.9812C76.8927 16.7888 76.662 17.514 76.2005 18.1568C75.7555 18.7831 75.1045 19.2775 74.2475 19.6401C73.407 20.0027 72.4263 20.184 71.3056 20.184Z" fill="white"/>
<path d="M85.0909 20.184C83.8878 20.184 82.8165 19.9779 81.8771 19.5659C80.9377 19.1539 80.196 18.5935 79.6521 17.8848C79.1082 17.1597 78.8033 16.3521 78.7374 15.4621H82.9154C82.9649 15.94 83.1874 16.3273 83.5829 16.624C83.9785 16.9207 84.4646 17.069 85.0415 17.069C85.5689 17.069 85.9727 16.9701 86.2529 16.7723C86.5495 16.5581 86.6979 16.2861 86.6979 15.9565C86.6979 15.561 86.4918 15.2725 86.0798 15.0913C85.6678 14.8935 85.0003 14.6792 84.0773 14.4485C83.0885 14.2177 82.2644 13.9788 81.6052 13.7315C80.9459 13.4678 80.3773 13.0641 79.8993 12.5202C79.4214 11.9598 79.1824 11.2099 79.1824 10.2705C79.1824 9.47939 79.3967 8.76245 79.8252 8.11968C80.2702 7.46043 80.9129 6.94127 81.7535 6.5622C82.6105 6.18314 83.6241 5.9936 84.7943 5.9936C86.5248 5.9936 87.8845 6.42211 88.8734 7.27914C89.8787 8.13616 90.4556 9.27337 90.6039 10.6908H86.6979C86.6319 10.2128 86.4177 9.83373 86.0551 9.55355C85.709 9.27337 85.2475 9.13328 84.6707 9.13328C84.1762 9.13328 83.7972 9.23217 83.5335 9.42994C83.2698 9.61124 83.1379 9.8667 83.1379 10.1963C83.1379 10.5919 83.3439 10.8885 83.756 11.0863C84.1845 11.2841 84.8437 11.4819 85.7337 11.6796C86.7555 11.9433 87.5878 12.207 88.2306 12.4707C88.8734 12.718 89.4337 13.13 89.9117 13.7068C90.4061 14.2672 90.6616 15.0253 90.6781 15.9812C90.6781 16.7888 90.4473 17.514 89.9859 18.1568C89.5409 18.7831 88.8899 19.2775 88.0328 19.6401C87.1923 20.0027 86.2117 20.184 85.0909 20.184Z" fill="white"/>
</svg>
