<svg width="298" height="409" viewBox="0 0 298 409" fill="none" xmlns="http://www.w3.org/2000/svg">
<g opacity="0.3">
<line x1="203.24" y1="13.4271" x2="207.5" y2="1.72262" stroke="#667085" stroke-width="2"/>
<line x1="229.864" y1="12.8805" x2="236.092" y2="2.09354" stroke="#667085" stroke-width="2"/>
<line x1="256.656" y1="12.3481" x2="264.662" y2="2.80644" stroke="#667085" stroke-width="2"/>
<line x1="283.65" y1="11.4465" x2="293.192" y2="3.44011" stroke="#667085" stroke-width="2"/>
<line x1="17.7088" y1="12.9786" x2="8.16716" y2="4.9722" stroke="#667085" stroke-width="2"/>
<line x1="44.4605" y1="13.6336" x2="36.4542" y2="4.09202" stroke="#667085" stroke-width="2"/>
<line x1="71.0519" y1="13.8805" x2="64.8241" y2="3.09354" stroke="#667085" stroke-width="2"/>
<line x1="97.5291" y1="14.1112" x2="93.269" y2="2.40666" stroke="#667085" stroke-width="2"/>
<line x1="123.937" y1="14.3325" x2="121.774" y2="2.066" stroke="#667085" stroke-width="2"/>
<line x1="150.324" y1="14.1588" x2="150.324" y2="1.70312" stroke="#667085" stroke-width="2"/>
<line x1="176.742" y1="13.9852" x2="178.905" y2="1.7187" stroke="#667085" stroke-width="2"/>
<line x1="175.217" y1="35.225" x2="179.477" y2="23.5205" stroke="#667085" stroke-width="2"/>
<line x1="201.837" y1="34.6774" x2="208.065" y2="23.8904" stroke="#667085" stroke-width="2"/>
<line x1="228.628" y1="34.1459" x2="236.635" y2="24.6043" stroke="#667085" stroke-width="2"/>
<line x1="255.627" y1="33.2443" x2="265.168" y2="25.238" stroke="#667085" stroke-width="2"/>
<line x1="282.859" y1="31.9764" x2="293.646" y2="25.7485" stroke="#667085" stroke-width="2"/>
<line x1="16.4371" y1="35.4315" x2="8.43071" y2="25.8899" stroke="#667085" stroke-width="2"/>
<line x1="43.0285" y1="35.6774" x2="36.8007" y2="24.8904" stroke="#667085" stroke-width="2"/>
<line x1="69.5017" y1="35.909" x2="65.2416" y2="24.2045" stroke="#667085" stroke-width="2"/>
<line x1="95.9097" y1="36.1293" x2="93.7468" y2="23.8629" stroke="#667085" stroke-width="2"/>
<line x1="122.297" y1="35.9557" x2="122.297" y2="23.5" stroke="#667085" stroke-width="2"/>
<line x1="148.718" y1="35.782" x2="150.881" y2="23.5156" stroke="#667085" stroke-width="2"/>
<line x1="147.189" y1="57.0228" x2="151.449" y2="45.3183" stroke="#667085" stroke-width="2"/>
<line x1="173.814" y1="56.4752" x2="180.042" y2="45.6883" stroke="#667085" stroke-width="2"/>
<line x1="200.605" y1="55.9428" x2="208.611" y2="46.4012" stroke="#667085" stroke-width="2"/>
<line x1="227.603" y1="55.0412" x2="237.145" y2="47.0348" stroke="#667085" stroke-width="2"/>
<line x1="254.836" y1="53.7733" x2="265.623" y2="47.5454" stroke="#667085" stroke-width="2"/>
<line x1="282.33" y1="52.9213" x2="294.034" y2="48.6612" stroke="#667085" stroke-width="2"/>
<line x1="15.0012" y1="57.4752" x2="8.77331" y2="46.6883" stroke="#667085" stroke-width="2"/>
<line x1="41.4783" y1="57.7069" x2="37.2182" y2="46.0024" stroke="#667085" stroke-width="2"/>
<line x1="67.8863" y1="57.9272" x2="65.7234" y2="45.6607" stroke="#667085" stroke-width="2"/>
<line x1="94.2734" y1="57.7535" x2="94.2734" y2="45.2978" stroke="#667085" stroke-width="2"/>
<line x1="120.691" y1="57.5799" x2="122.854" y2="45.3134" stroke="#667085" stroke-width="2"/>
<line x1="119.166" y1="78.8197" x2="123.426" y2="67.1152" stroke="#667085" stroke-width="2"/>
<line x1="145.786" y1="78.2731" x2="152.014" y2="67.4861" stroke="#667085" stroke-width="2"/>
<line x1="172.578" y1="77.7406" x2="180.584" y2="68.199" stroke="#667085" stroke-width="2"/>
<line x1="199.576" y1="76.8391" x2="209.118" y2="68.8327" stroke="#667085" stroke-width="2"/>
<line x1="226.812" y1="75.5711" x2="237.599" y2="69.3433" stroke="#667085" stroke-width="2"/>
<line x1="254.306" y1="74.7191" x2="266.011" y2="70.459" stroke="#667085" stroke-width="2"/>
<line x1="282.08" y1="73.506" x2="294.347" y2="71.3431" stroke="#667085" stroke-width="2"/>
<line x1="13.4509" y1="79.5038" x2="9.19083" y2="67.7992" stroke="#667085" stroke-width="2"/>
<line x1="39.8589" y1="79.725" x2="37.696" y2="67.4586" stroke="#667085" stroke-width="2"/>
<line x1="66.2461" y1="79.5514" x2="66.2461" y2="67.0957" stroke="#667085" stroke-width="2"/>
<line x1="92.6675" y1="79.3777" x2="94.8304" y2="67.1113" stroke="#667085" stroke-width="2"/>
<line x1="91.1384" y1="100.618" x2="95.3985" y2="88.913" stroke="#667085" stroke-width="2"/>
<line x1="117.763" y1="100.07" x2="123.991" y2="89.283" stroke="#667085" stroke-width="2"/>
<line x1="144.554" y1="99.5385" x2="152.561" y2="89.9969" stroke="#667085" stroke-width="2"/>
<line x1="171.553" y1="98.6359" x2="181.094" y2="90.6296" stroke="#667085" stroke-width="2"/>
<line x1="198.785" y1="97.369" x2="209.572" y2="91.1411" stroke="#667085" stroke-width="2"/>
<line x1="226.279" y1="96.516" x2="237.984" y2="92.2559" stroke="#667085" stroke-width="2"/>
<line x1="254.053" y1="95.3039" x2="266.319" y2="93.141" stroke="#667085" stroke-width="2"/>
<line x1="11.8355" y1="101.522" x2="9.6726" y2="89.2554" stroke="#667085" stroke-width="2"/>
<line x1="38.2227" y1="101.348" x2="38.2227" y2="88.8926" stroke="#667085" stroke-width="2"/>
<line x1="64.6402" y1="101.175" x2="66.8031" y2="88.9081" stroke="#667085" stroke-width="2"/>
<line x1="297.68" y1="96.1207" x2="285.224" y2="96.1207" stroke="#667085" stroke-width="2"/>
<line x1="63.115" y1="122.414" x2="67.3751" y2="110.71" stroke="#667085" stroke-width="2"/>
<line x1="89.7355" y1="121.868" x2="95.9634" y2="111.081" stroke="#667085" stroke-width="2"/>
<line x1="116.527" y1="121.335" x2="124.533" y2="111.794" stroke="#667085" stroke-width="2"/>
<line x1="143.525" y1="120.434" x2="153.067" y2="112.427" stroke="#667085" stroke-width="2"/>
<line x1="170.762" y1="119.166" x2="181.549" y2="112.938" stroke="#667085" stroke-width="2"/>
<line x1="198.256" y1="118.314" x2="209.96" y2="114.054" stroke="#667085" stroke-width="2"/>
<line x1="226.029" y1="117.101" x2="238.296" y2="114.938" stroke="#667085" stroke-width="2"/>
<line x1="10.1953" y1="123.146" x2="10.1953" y2="110.69" stroke="#667085" stroke-width="2"/>
<line x1="36.6168" y1="122.972" x2="38.7797" y2="110.706" stroke="#667085" stroke-width="2"/>
<line x1="269.652" y1="117.919" x2="257.197" y2="117.919" stroke="#667085" stroke-width="2"/>
<line x1="297.365" y1="119.07" x2="285.099" y2="116.907" stroke="#667085" stroke-width="2"/>
<line x1="35.0877" y1="144.212" x2="39.3478" y2="132.508" stroke="#667085" stroke-width="2"/>
<line x1="61.7121" y1="143.665" x2="67.9399" y2="132.878" stroke="#667085" stroke-width="2"/>
<line x1="88.5035" y1="143.133" x2="96.5099" y2="133.592" stroke="#667085" stroke-width="2"/>
<line x1="115.502" y1="142.232" x2="125.043" y2="134.225" stroke="#667085" stroke-width="2"/>
<line x1="142.734" y1="140.964" x2="153.521" y2="134.736" stroke="#667085" stroke-width="2"/>
<line x1="170.228" y1="140.112" x2="181.933" y2="135.852" stroke="#667085" stroke-width="2"/>
<line x1="198.002" y1="138.899" x2="210.269" y2="136.736" stroke="#667085" stroke-width="2"/>
<line x1="8.58941" y1="144.77" x2="10.7523" y2="132.504" stroke="#667085" stroke-width="2"/>
<line x1="241.629" y1="139.715" x2="229.173" y2="139.715" stroke="#667085" stroke-width="2"/>
<line x1="269.338" y1="140.868" x2="257.072" y2="138.705" stroke="#667085" stroke-width="2"/>
<line x1="296.775" y1="141.991" x2="285.071" y2="137.731" stroke="#667085" stroke-width="2"/>
<line x1="7.06421" y1="166.01" x2="11.3243" y2="154.306" stroke="#667085" stroke-width="2"/>
<line x1="33.6848" y1="165.463" x2="39.9126" y2="154.676" stroke="#667085" stroke-width="2"/>
<line x1="60.4761" y1="164.93" x2="68.4825" y2="155.388" stroke="#667085" stroke-width="2"/>
<line x1="87.4744" y1="164.029" x2="97.016" y2="156.022" stroke="#667085" stroke-width="2"/>
<line x1="114.711" y1="162.761" x2="125.498" y2="156.533" stroke="#667085" stroke-width="2"/>
<line x1="142.205" y1="161.909" x2="153.909" y2="157.648" stroke="#667085" stroke-width="2"/>
<line x1="169.979" y1="160.696" x2="182.245" y2="158.534" stroke="#667085" stroke-width="2"/>
<line x1="295.93" y1="164.493" x2="285.143" y2="158.265" stroke="#667085" stroke-width="2"/>
<line x1="213.605" y1="161.513" x2="201.15" y2="161.513" stroke="#667085" stroke-width="2"/>
<line x1="241.315" y1="162.666" x2="229.048" y2="160.503" stroke="#667085" stroke-width="2"/>
<line x1="268.748" y1="163.788" x2="257.043" y2="159.528" stroke="#667085" stroke-width="2"/>
<line x1="5.66132" y1="187.26" x2="11.8892" y2="176.473" stroke="#667085" stroke-width="2"/>
<line x1="32.4527" y1="186.728" x2="40.4591" y2="177.186" stroke="#667085" stroke-width="2"/>
<line x1="59.451" y1="185.826" x2="68.9926" y2="177.82" stroke="#667085" stroke-width="2"/>
<line x1="86.6836" y1="184.558" x2="97.4705" y2="178.331" stroke="#667085" stroke-width="2"/>
<line x1="114.178" y1="183.706" x2="125.882" y2="179.446" stroke="#667085" stroke-width="2"/>
<line x1="141.951" y1="182.493" x2="154.218" y2="180.33" stroke="#667085" stroke-width="2"/>
<line x1="267.902" y1="186.29" x2="257.115" y2="180.063" stroke="#667085" stroke-width="2"/>
<line x1="294.853" y1="187.358" x2="285.312" y2="179.352" stroke="#667085" stroke-width="2"/>
<line x1="185.578" y1="183.31" x2="173.122" y2="183.31" stroke="#667085" stroke-width="2"/>
<line x1="213.287" y1="184.463" x2="201.021" y2="182.3" stroke="#667085" stroke-width="2"/>
<line x1="240.724" y1="185.586" x2="229.02" y2="181.326" stroke="#667085" stroke-width="2"/>
<line x1="4.42536" y1="208.526" x2="12.4317" y2="198.984" stroke="#667085" stroke-width="2"/>
<line x1="31.4236" y1="207.623" x2="40.9652" y2="199.617" stroke="#667085" stroke-width="2"/>
<line x1="58.6602" y1="206.356" x2="69.4471" y2="200.128" stroke="#667085" stroke-width="2"/>
<line x1="86.1541" y1="205.504" x2="97.8586" y2="201.244" stroke="#667085" stroke-width="2"/>
<line x1="113.928" y1="204.291" x2="126.194" y2="202.128" stroke="#667085" stroke-width="2"/>
<line x1="239.879" y1="208.088" x2="229.092" y2="201.86" stroke="#667085" stroke-width="2"/>
<line x1="266.826" y1="209.155" x2="257.284" y2="201.149" stroke="#667085" stroke-width="2"/>
<line x1="293.578" y1="209.811" x2="285.571" y2="200.27" stroke="#667085" stroke-width="2"/>
<line x1="157.555" y1="205.108" x2="145.099" y2="205.108" stroke="#667085" stroke-width="2"/>
<line x1="185.264" y1="206.261" x2="172.997" y2="204.098" stroke="#667085" stroke-width="2"/>
<line x1="212.701" y1="207.384" x2="200.996" y2="203.124" stroke="#667085" stroke-width="2"/>
<line x1="3.40018" y1="229.421" x2="12.9418" y2="221.415" stroke="#667085" stroke-width="2"/>
<line x1="30.6328" y1="228.153" x2="41.4198" y2="221.925" stroke="#667085" stroke-width="2"/>
<line x1="58.1267" y1="227.301" x2="69.8313" y2="223.041" stroke="#667085" stroke-width="2"/>
<line x1="85.9006" y1="226.088" x2="98.167" y2="223.925" stroke="#667085" stroke-width="2"/>
<line x1="211.852" y1="229.885" x2="201.065" y2="223.657" stroke="#667085" stroke-width="2"/>
<line x1="238.803" y1="230.953" x2="229.261" y2="222.947" stroke="#667085" stroke-width="2"/>
<line x1="265.55" y1="231.608" x2="257.544" y2="222.067" stroke="#667085" stroke-width="2"/>
<line x1="292.146" y1="231.855" x2="285.918" y2="221.068" stroke="#667085" stroke-width="2"/>
<line x1="129.527" y1="226.906" x2="117.072" y2="226.906" stroke="#667085" stroke-width="2"/>
<line x1="157.237" y1="228.058" x2="144.97" y2="225.895" stroke="#667085" stroke-width="2"/>
<line x1="184.674" y1="229.181" x2="172.969" y2="224.92" stroke="#667085" stroke-width="2"/>
<line x1="2.60938" y1="249.951" x2="13.3963" y2="243.723" stroke="#667085" stroke-width="2"/>
<line x1="30.1033" y1="249.099" x2="41.8078" y2="244.839" stroke="#667085" stroke-width="2"/>
<line x1="57.8771" y1="247.886" x2="70.1436" y2="245.723" stroke="#667085" stroke-width="2"/>
<line x1="183.828" y1="251.683" x2="173.041" y2="245.455" stroke="#667085" stroke-width="2"/>
<line x1="210.775" y1="252.751" x2="201.234" y2="244.745" stroke="#667085" stroke-width="2"/>
<line x1="237.527" y1="253.406" x2="229.521" y2="243.864" stroke="#667085" stroke-width="2"/>
<line x1="264.118" y1="253.652" x2="257.891" y2="242.865" stroke="#667085" stroke-width="2"/>
<line x1="290.595" y1="253.884" x2="286.335" y2="242.179" stroke="#667085" stroke-width="2"/>
<line x1="101.504" y1="248.703" x2="89.0482" y2="248.703" stroke="#667085" stroke-width="2"/>
<line x1="129.213" y1="249.856" x2="116.947" y2="247.693" stroke="#667085" stroke-width="2"/>
<line x1="156.65" y1="250.978" x2="144.946" y2="246.718" stroke="#667085" stroke-width="2"/>
<line x1="2.07595" y1="270.896" x2="13.7805" y2="266.636" stroke="#667085" stroke-width="2"/>
<line x1="29.8498" y1="269.684" x2="42.1163" y2="267.521" stroke="#667085" stroke-width="2"/>
<line x1="155.801" y1="273.481" x2="145.014" y2="267.253" stroke="#667085" stroke-width="2"/>
<line x1="182.752" y1="274.548" x2="173.21" y2="266.542" stroke="#667085" stroke-width="2"/>
<line x1="209.503" y1="275.203" x2="201.497" y2="265.661" stroke="#667085" stroke-width="2"/>
<line x1="236.095" y1="275.45" x2="229.867" y2="264.663" stroke="#667085" stroke-width="2"/>
<line x1="262.568" y1="275.681" x2="258.308" y2="263.977" stroke="#667085" stroke-width="2"/>
<line x1="288.976" y1="275.902" x2="286.813" y2="263.635" stroke="#667085" stroke-width="2"/>
<line x1="73.4766" y1="270.501" x2="61.0209" y2="270.501" stroke="#667085" stroke-width="2"/>
<line x1="101.186" y1="271.653" x2="88.9193" y2="269.49" stroke="#667085" stroke-width="2"/>
<line x1="128.623" y1="272.775" x2="116.918" y2="268.515" stroke="#667085" stroke-width="2"/>
<line x1="1.82635" y1="291.481" x2="14.0928" y2="289.318" stroke="#667085" stroke-width="2"/>
<line x1="127.777" y1="295.278" x2="116.99" y2="289.05" stroke="#667085" stroke-width="2"/>
<line x1="154.724" y1="296.346" x2="145.183" y2="288.339" stroke="#667085" stroke-width="2"/>
<line x1="181.476" y1="297.001" x2="173.47" y2="287.459" stroke="#667085" stroke-width="2"/>
<line x1="208.068" y1="297.248" x2="201.84" y2="286.461" stroke="#667085" stroke-width="2"/>
<line x1="234.545" y1="297.478" x2="230.285" y2="285.774" stroke="#667085" stroke-width="2"/>
<line x1="260.953" y1="297.7" x2="258.79" y2="285.433" stroke="#667085" stroke-width="2"/>
<line x1="287.34" y1="297.526" x2="287.34" y2="285.07" stroke="#667085" stroke-width="2"/>
<line x1="45.4531" y1="292.297" x2="32.9974" y2="292.297" stroke="#667085" stroke-width="2"/>
<line x1="73.1623" y1="293.45" x2="60.8958" y2="291.287" stroke="#667085" stroke-width="2"/>
<line x1="100.599" y1="294.573" x2="88.8949" y2="290.313" stroke="#667085" stroke-width="2"/>
<line x1="99.75" y1="317.076" x2="88.9631" y2="310.848" stroke="#667085" stroke-width="2"/>
<line x1="126.701" y1="318.143" x2="117.159" y2="310.136" stroke="#667085" stroke-width="2"/>
<line x1="153.453" y1="318.799" x2="145.446" y2="309.257" stroke="#667085" stroke-width="2"/>
<line x1="180.044" y1="319.045" x2="173.816" y2="308.258" stroke="#667085" stroke-width="2"/>
<line x1="206.517" y1="319.276" x2="202.257" y2="307.572" stroke="#667085" stroke-width="2"/>
<line x1="232.925" y1="319.497" x2="230.762" y2="307.23" stroke="#667085" stroke-width="2"/>
<line x1="259.312" y1="319.323" x2="259.312" y2="306.867" stroke="#667085" stroke-width="2"/>
<line x1="285.734" y1="319.149" x2="287.897" y2="306.883" stroke="#667085" stroke-width="2"/>
<line x1="17.4258" y1="314.095" x2="4.97009" y2="314.095" stroke="#667085" stroke-width="2"/>
<line x1="45.1349" y1="315.248" x2="32.8685" y2="313.085" stroke="#667085" stroke-width="2"/>
<line x1="72.572" y1="316.371" x2="60.8675" y2="312.111" stroke="#667085" stroke-width="2"/>
<line x1="284.205" y1="340.389" x2="288.465" y2="328.685" stroke="#667085" stroke-width="2"/>
<line x1="71.7266" y1="338.872" x2="60.9396" y2="332.645" stroke="#667085" stroke-width="2"/>
<line x1="98.6736" y1="339.94" x2="89.132" y2="331.934" stroke="#667085" stroke-width="2"/>
<line x1="125.425" y1="340.596" x2="117.419" y2="331.054" stroke="#667085" stroke-width="2"/>
<line x1="152.017" y1="340.842" x2="145.789" y2="330.055" stroke="#667085" stroke-width="2"/>
<line x1="178.494" y1="341.073" x2="174.234" y2="329.369" stroke="#667085" stroke-width="2"/>
<line x1="204.902" y1="341.294" x2="202.739" y2="329.028" stroke="#667085" stroke-width="2"/>
<line x1="231.289" y1="341.121" x2="231.289" y2="328.665" stroke="#667085" stroke-width="2"/>
<line x1="257.707" y1="340.947" x2="259.87" y2="328.681" stroke="#667085" stroke-width="2"/>
<line x1="17.1115" y1="337.045" x2="4.84504" y2="334.882" stroke="#667085" stroke-width="2"/>
<line x1="44.5486" y1="338.168" x2="32.8441" y2="333.908" stroke="#667085" stroke-width="2"/>
<line x1="256.181" y1="362.187" x2="260.441" y2="350.482" stroke="#667085" stroke-width="2"/>
<line x1="282.802" y1="361.639" x2="289.03" y2="350.852" stroke="#667085" stroke-width="2"/>
<line x1="43.6992" y1="360.67" x2="32.9123" y2="354.443" stroke="#667085" stroke-width="2"/>
<line x1="70.6502" y1="361.738" x2="61.1086" y2="353.732" stroke="#667085" stroke-width="2"/>
<line x1="97.4019" y1="362.393" x2="89.3956" y2="352.852" stroke="#667085" stroke-width="2"/>
<line x1="123.993" y1="362.639" x2="117.766" y2="351.852" stroke="#667085" stroke-width="2"/>
<line x1="150.467" y1="362.871" x2="146.206" y2="351.166" stroke="#667085" stroke-width="2"/>
<line x1="176.875" y1="363.092" x2="174.712" y2="350.826" stroke="#667085" stroke-width="2"/>
<line x1="203.262" y1="362.919" x2="203.262" y2="350.463" stroke="#667085" stroke-width="2"/>
<line x1="229.683" y1="362.745" x2="231.846" y2="350.478" stroke="#667085" stroke-width="2"/>
<line x1="16.5213" y1="359.966" x2="4.81674" y2="355.706" stroke="#667085" stroke-width="2"/>
<line x1="228.154" y1="383.985" x2="232.414" y2="372.28" stroke="#667085" stroke-width="2"/>
<line x1="254.779" y1="383.437" x2="261.006" y2="372.65" stroke="#667085" stroke-width="2"/>
<line x1="281.57" y1="382.905" x2="289.576" y2="373.363" stroke="#667085" stroke-width="2"/>
<line x1="15.6758" y1="382.468" x2="4.88883" y2="376.24" stroke="#667085" stroke-width="2"/>
<line x1="42.6228" y1="383.535" x2="33.0812" y2="375.529" stroke="#667085" stroke-width="2"/>
<line x1="69.3746" y1="384.19" x2="61.3682" y2="374.649" stroke="#667085" stroke-width="2"/>
<line x1="95.966" y1="384.437" x2="89.7382" y2="373.65" stroke="#667085" stroke-width="2"/>
<line x1="122.443" y1="384.669" x2="118.183" y2="372.964" stroke="#667085" stroke-width="2"/>
<line x1="148.851" y1="384.889" x2="146.688" y2="372.623" stroke="#667085" stroke-width="2"/>
<line x1="175.238" y1="384.715" x2="175.238" y2="372.26" stroke="#667085" stroke-width="2"/>
<line x1="201.656" y1="384.542" x2="203.819" y2="372.275" stroke="#667085" stroke-width="2"/>
<line x1="200.131" y1="405.782" x2="204.391" y2="394.077" stroke="#667085" stroke-width="2"/>
<line x1="226.751" y1="405.235" x2="232.979" y2="394.448" stroke="#667085" stroke-width="2"/>
<line x1="253.543" y1="404.703" x2="261.549" y2="395.161" stroke="#667085" stroke-width="2"/>
<line x1="280.541" y1="403.801" x2="290.082" y2="395.795" stroke="#667085" stroke-width="2"/>
<line x1="14.5994" y1="405.333" x2="5.05778" y2="397.327" stroke="#667085" stroke-width="2"/>
<line x1="41.3511" y1="405.988" x2="33.3448" y2="396.447" stroke="#667085" stroke-width="2"/>
<line x1="67.9426" y1="406.235" x2="61.7147" y2="395.448" stroke="#667085" stroke-width="2"/>
<line x1="94.4158" y1="406.466" x2="90.1557" y2="394.761" stroke="#667085" stroke-width="2"/>
<line x1="120.824" y1="406.687" x2="118.661" y2="394.421" stroke="#667085" stroke-width="2"/>
<line x1="147.211" y1="406.513" x2="147.211" y2="394.058" stroke="#667085" stroke-width="2"/>
<line x1="173.632" y1="406.34" x2="175.795" y2="394.073" stroke="#667085" stroke-width="2"/>
</g>
</svg>
