<svg width="187" height="189" viewBox="0 0 187 189" fill="none" xmlns="http://www.w3.org/2000/svg">
<path d="M8.76527 65.4868C7.85065 64.1053 8.22917 62.2439 9.6107 61.3293C10.9922 60.4146 12.8536 60.7932 13.7683 62.1747L8.76527 65.4868ZM182.685 116.037C184.329 115.832 185.828 117 186.032 118.644C186.236 120.288 185.068 121.787 183.424 121.991L182.685 116.037ZM17.3395 89.8461C17.7045 91.4622 16.6902 93.0682 15.0741 93.4332C13.4579 93.7983 11.8519 92.784 11.4869 91.1678L17.3395 89.8461ZM10.0323 62.7434L8.1974 60.37L8.19778 60.3697L10.0323 62.7434ZM34.1626 59.5729C35.7964 59.8488 36.8971 61.3969 36.6213 63.0306C36.3454 64.6643 34.7973 65.7651 33.1636 65.4892L34.1626 59.5729ZM11.2668 63.8307C13.7683 62.1747 13.7674 62.1733 13.7666 62.1722C13.7666 62.1722 13.7661 62.1714 13.7661 62.1714C13.7661 62.1714 13.7668 62.1724 13.7682 62.1745C13.771 62.1787 13.7766 62.1871 13.7851 62.1997C13.8021 62.2248 13.8306 62.2666 13.8706 62.3243C13.9506 62.4398 14.0769 62.6192 14.2502 62.8579C14.597 63.3354 15.1322 64.0497 15.8635 64.9627C17.3261 66.789 19.5719 69.4094 22.661 72.5203C28.8395 78.7423 38.3869 86.9218 51.7875 94.6387C78.5472 110.048 120.839 123.711 182.685 116.037L183.424 121.991C120.283 129.826 76.6807 115.897 48.7933 99.8382C34.8704 91.8205 24.906 83.2963 18.4035 76.748C15.1522 73.4738 12.7652 70.6925 11.1802 68.7134C10.3876 67.7237 9.79533 66.9343 9.39551 66.3838C9.19559 66.1085 9.04376 65.8929 8.93905 65.7418C8.8867 65.6663 8.84612 65.6069 8.8172 65.5642C8.80273 65.5428 8.79119 65.5256 8.78254 65.5127C8.77821 65.5063 8.77461 65.5009 8.77174 65.4965C8.7703 65.4944 8.76868 65.4919 8.76796 65.4909C8.76653 65.4887 8.76527 65.4868 11.2668 63.8307ZM14.4132 90.507C11.4869 91.1678 11.4868 91.1676 11.4868 91.1673C11.4867 91.1671 11.4866 91.1667 11.4865 91.1662C11.4863 91.1653 11.486 91.164 11.4856 91.1622C11.4848 91.1588 11.4837 91.1537 11.4822 91.147C11.4792 91.1338 11.4748 91.1142 11.469 91.0885C11.4575 91.0372 11.4405 90.9615 11.4185 90.8631C11.3745 90.6662 11.3104 90.3782 11.2295 90.0117C11.0677 89.2789 10.8386 88.2318 10.5689 86.9717C10.0299 84.4537 9.32657 81.0765 8.67282 77.6545C8.02155 74.2454 7.40922 70.7389 7.06174 67.9811C6.88967 66.6155 6.77075 65.3442 6.75892 64.3283C6.75315 63.8323 6.77049 63.2788 6.8586 62.7589C6.90267 62.4989 6.97977 62.1518 7.13116 61.7857C7.27078 61.4482 7.57117 60.8541 8.1974 60.37L11.8672 65.1168C12.3929 64.7104 12.6076 64.2434 12.6755 64.0792C12.7186 63.9752 12.7426 63.8939 12.755 63.8471C12.7677 63.7989 12.773 63.7686 12.7743 63.7614C12.7761 63.7508 12.7698 63.7859 12.7645 63.8814C12.7595 63.9731 12.7566 64.0975 12.7585 64.2585C12.7663 64.931 12.8514 65.9356 13.0147 67.2311C13.3378 69.7956 13.9212 73.1523 14.5662 76.5286C15.2088 79.8919 15.9023 83.2225 16.436 85.7158C16.7027 86.9615 16.929 87.9959 17.0884 88.7182C17.1681 89.0794 17.2311 89.3623 17.2741 89.5545C17.2956 89.6506 17.312 89.724 17.3231 89.7731C17.3286 89.7977 17.3327 89.8162 17.3355 89.8284C17.3369 89.8345 17.3379 89.8391 17.3386 89.842C17.3389 89.8435 17.3391 89.8446 17.3393 89.8452C17.3394 89.8456 17.3394 89.8458 17.3395 89.8459C17.3395 89.8461 17.3395 89.8461 14.4132 90.507ZM8.19778 60.3697C8.78568 59.9153 9.43587 59.7222 9.74273 59.638C10.1392 59.5291 10.5661 59.4509 10.9769 59.3908C11.8046 59.2698 12.8164 59.1875 13.9044 59.1302C16.0946 59.0149 18.8395 58.9892 21.5658 59.0151C24.3009 59.041 27.0616 59.1195 29.2995 59.2178C31.4422 59.312 33.3303 59.4324 34.1626 59.5729L33.1636 65.4892C32.7752 65.4236 31.3008 65.3116 29.036 65.212C26.8663 65.1167 24.1745 65.0401 21.5088 65.0148C18.8343 64.9894 16.2302 65.0161 14.2198 65.1219C13.2075 65.1752 12.4061 65.2457 11.8449 65.3277C11.5611 65.3692 11.3996 65.4051 11.3309 65.424C11.1725 65.4674 11.4807 65.4156 11.8668 65.1171L8.19778 60.3697Z" fill="#9E77ED"/>
</svg>
