<svg width="298" height="408" viewBox="0 0 298 408" fill="none" xmlns="http://www.w3.org/2000/svg">
<g opacity="0.3">
<line y1="-1" x2="12.4557" y2="-1" transform="matrix(-0.34202 -0.939693 -0.939693 0.34202 93.8203 13.0664)" stroke="#667085" stroke-width="2"/>
<line y1="-1" x2="12.4557" y2="-1" transform="matrix(-0.5 -0.866025 -0.866025 0.5 67.2695 12.6777)" stroke="#667085" stroke-width="2"/>
<line y1="-1" x2="12.4557" y2="-1" transform="matrix(-0.642788 -0.766044 -0.766044 0.642788 40.5781 12.2881)" stroke="#667085" stroke-width="2"/>
<line y1="-1" x2="12.4557" y2="-1" transform="matrix(-0.766044 -0.642788 -0.642788 0.766044 13.707 11.5098)" stroke="#667085" stroke-width="2"/>
<line y1="-1" x2="12.4557" y2="-1" transform="matrix(0.766044 -0.642788 -0.642788 -0.766044 279.648 11.5098)" stroke="#667085" stroke-width="2"/>
<line y1="-1" x2="12.4557" y2="-1" transform="matrix(0.642788 -0.766044 -0.766044 -0.642788 252.773 12.2881)" stroke="#667085" stroke-width="2"/>
<line y1="-1" x2="12.4557" y2="-1" transform="matrix(0.5 -0.866025 -0.866025 -0.5 226.082 12.6777)" stroke="#667085" stroke-width="2"/>
<line y1="-1" x2="12.4557" y2="-1" transform="matrix(0.34202 -0.939693 -0.939693 -0.34202 199.531 13.0664)" stroke="#667085" stroke-width="2"/>
<line y1="-1" x2="12.4557" y2="-1" transform="matrix(0.173648 -0.984808 -0.984808 -0.173648 173.078 13.4561)" stroke="#667085" stroke-width="2"/>
<line y1="-1" x2="12.4557" y2="-1" transform="matrix(0 -1 -1 0 146.676 13.4561)" stroke="#667085" stroke-width="2"/>
<line y1="-1" x2="12.4557" y2="-1" transform="matrix(-0.173648 -0.984808 -0.984808 0.173648 120.273 13.4561)" stroke="#667085" stroke-width="2"/>
<line y1="-1" x2="12.4557" y2="-1" transform="matrix(-0.34202 -0.939693 -0.939693 0.34202 121.844 34.8643)" stroke="#667085" stroke-width="2"/>
<line y1="-1" x2="12.4557" y2="-1" transform="matrix(-0.5 -0.866025 -0.866025 0.5 95.2969 34.4746)" stroke="#667085" stroke-width="2"/>
<line y1="-1" x2="12.4557" y2="-1" transform="matrix(-0.642788 -0.766044 -0.766044 0.642788 68.6055 34.0859)" stroke="#667085" stroke-width="2"/>
<line y1="-1" x2="12.4557" y2="-1" transform="matrix(-0.766044 -0.642788 -0.642788 0.766044 41.7305 33.3076)" stroke="#667085" stroke-width="2"/>
<line y1="-1" x2="12.4557" y2="-1" transform="matrix(-0.866025 -0.5 -0.5 0.866025 14.6406 32.1396)" stroke="#667085" stroke-width="2"/>
<line y1="-1" x2="12.4557" y2="-1" transform="matrix(0.642788 -0.766044 -0.766044 -0.642788 280.797 34.0859)" stroke="#667085" stroke-width="2"/>
<line y1="-1" x2="12.4557" y2="-1" transform="matrix(0.5 -0.866025 -0.866025 -0.5 254.105 34.4746)" stroke="#667085" stroke-width="2"/>
<line y1="-1" x2="12.4557" y2="-1" transform="matrix(0.34202 -0.939693 -0.939693 -0.34202 227.559 34.8643)" stroke="#667085" stroke-width="2"/>
<line y1="-1" x2="12.4557" y2="-1" transform="matrix(0.173648 -0.984808 -0.984808 -0.173648 201.105 35.2529)" stroke="#667085" stroke-width="2"/>
<line y1="-1" x2="12.4557" y2="-1" transform="matrix(0 -1 -1 0 174.703 35.2529)" stroke="#667085" stroke-width="2"/>
<line y1="-1" x2="12.4557" y2="-1" transform="matrix(-0.173648 -0.984808 -0.984808 0.173648 148.297 35.2529)" stroke="#667085" stroke-width="2"/>
<line y1="-1" x2="12.4557" y2="-1" transform="matrix(-0.34202 -0.939693 -0.939693 0.34202 149.871 56.6621)" stroke="#667085" stroke-width="2"/>
<line y1="-1" x2="12.4557" y2="-1" transform="matrix(-0.5 -0.866025 -0.866025 0.5 123.32 56.2725)" stroke="#667085" stroke-width="2"/>
<line y1="-1" x2="12.4557" y2="-1" transform="matrix(-0.642788 -0.766044 -0.766044 0.642788 96.6289 55.8828)" stroke="#667085" stroke-width="2"/>
<line y1="-1" x2="12.4557" y2="-1" transform="matrix(-0.766044 -0.642788 -0.642788 0.766044 69.7539 55.1045)" stroke="#667085" stroke-width="2"/>
<line y1="-1" x2="12.4557" y2="-1" transform="matrix(-0.866025 -0.5 -0.5 0.866025 42.6641 53.9365)" stroke="#667085" stroke-width="2"/>
<line y1="-1" x2="12.4557" y2="-1" transform="matrix(-0.939693 -0.34202 -0.34202 0.939693 15.3281 53.1582)" stroke="#667085" stroke-width="2"/>
<line y1="-1" x2="12.4557" y2="-1" transform="matrix(0.5 -0.866025 -0.866025 -0.5 282.133 56.2725)" stroke="#667085" stroke-width="2"/>
<line y1="-1" x2="12.4557" y2="-1" transform="matrix(0.34202 -0.939693 -0.939693 -0.34202 255.582 56.6621)" stroke="#667085" stroke-width="2"/>
<line y1="-1" x2="12.4557" y2="-1" transform="matrix(0.173648 -0.984808 -0.984808 -0.173648 229.129 57.0508)" stroke="#667085" stroke-width="2"/>
<line y1="-1" x2="12.4557" y2="-1" transform="matrix(0 -1 -1 0 202.727 57.0508)" stroke="#667085" stroke-width="2"/>
<line y1="-1" x2="12.4557" y2="-1" transform="matrix(-0.173648 -0.984808 -0.984808 0.173648 176.324 57.0508)" stroke="#667085" stroke-width="2"/>
<line y1="-1" x2="12.4557" y2="-1" transform="matrix(-0.34202 -0.939693 -0.939693 0.34202 177.895 78.459)" stroke="#667085" stroke-width="2"/>
<line y1="-1" x2="12.4557" y2="-1" transform="matrix(-0.5 -0.866025 -0.866025 0.5 151.348 78.0703)" stroke="#667085" stroke-width="2"/>
<line y1="-1" x2="12.4557" y2="-1" transform="matrix(-0.642788 -0.766044 -0.766044 0.642788 124.656 77.6807)" stroke="#667085" stroke-width="2"/>
<line y1="-1" x2="12.4557" y2="-1" transform="matrix(-0.766044 -0.642788 -0.642788 0.766044 97.7812 76.9023)" stroke="#667085" stroke-width="2"/>
<line y1="-1" x2="12.4557" y2="-1" transform="matrix(-0.866025 -0.5 -0.5 0.866025 70.6875 75.7344)" stroke="#667085" stroke-width="2"/>
<line y1="-1" x2="12.4557" y2="-1" transform="matrix(-0.939693 -0.34202 -0.34202 0.939693 43.3516 74.9561)" stroke="#667085" stroke-width="2"/>
<line y1="-1" x2="12.4557" y2="-1" transform="matrix(-0.984808 -0.173648 -0.173648 0.984808 15.7461 73.7881)" stroke="#667085" stroke-width="2"/>
<line y1="-1" x2="12.4557" y2="-1" transform="matrix(0.34202 -0.939693 -0.939693 -0.34202 283.609 78.459)" stroke="#667085" stroke-width="2"/>
<line y1="-1" x2="12.4557" y2="-1" transform="matrix(0.173648 -0.984808 -0.984808 -0.173648 257.156 78.8486)" stroke="#667085" stroke-width="2"/>
<line y1="-1" x2="12.4557" y2="-1" transform="matrix(0 -1 -1 0 230.754 78.8486)" stroke="#667085" stroke-width="2"/>
<line y1="-1" x2="12.4557" y2="-1" transform="matrix(-0.173648 -0.984808 -0.984808 0.173648 204.348 78.8486)" stroke="#667085" stroke-width="2"/>
<line y1="-1" x2="12.4557" y2="-1" transform="matrix(-0.34202 -0.939693 -0.939693 0.34202 205.922 100.257)" stroke="#667085" stroke-width="2"/>
<line y1="-1" x2="12.4557" y2="-1" transform="matrix(-0.5 -0.866025 -0.866025 0.5 179.371 99.8672)" stroke="#667085" stroke-width="2"/>
<line y1="-1" x2="12.4557" y2="-1" transform="matrix(-0.642788 -0.766044 -0.766044 0.642788 152.68 99.4785)" stroke="#667085" stroke-width="2"/>
<line y1="-1" x2="12.4557" y2="-1" transform="matrix(-0.766044 -0.642788 -0.642788 0.766044 125.805 98.6992)" stroke="#667085" stroke-width="2"/>
<line y1="-1" x2="12.4557" y2="-1" transform="matrix(-0.866025 -0.5 -0.5 0.866025 98.7148 97.5322)" stroke="#667085" stroke-width="2"/>
<line y1="-1" x2="12.4557" y2="-1" transform="matrix(-0.939693 -0.34202 -0.34202 0.939693 71.3789 96.7529)" stroke="#667085" stroke-width="2"/>
<line y1="-1" x2="12.4557" y2="-1" transform="matrix(-0.984808 -0.173648 -0.173648 0.984808 43.7734 95.5859)" stroke="#667085" stroke-width="2"/>
<line y1="-1" x2="12.4557" y2="-1" transform="matrix(0.173648 -0.984808 -0.984808 -0.173648 285.18 100.646)" stroke="#667085" stroke-width="2"/>
<line y1="-1" x2="12.4557" y2="-1" transform="matrix(0 -1 -1 0 258.777 100.646)" stroke="#667085" stroke-width="2"/>
<line y1="-1" x2="12.4557" y2="-1" transform="matrix(-0.173648 -0.984808 -0.984808 0.173648 232.375 100.646)" stroke="#667085" stroke-width="2"/>
<line y1="-1" x2="12.4557" y2="-1" transform="matrix(1 0 0 -1 0.320312 94.418)" stroke="#667085" stroke-width="2"/>
<line y1="-1" x2="12.4557" y2="-1" transform="matrix(-0.34202 -0.939693 -0.939693 0.34202 233.945 122.054)" stroke="#667085" stroke-width="2"/>
<line y1="-1" x2="12.4557" y2="-1" transform="matrix(-0.5 -0.866025 -0.866025 0.5 207.398 121.665)" stroke="#667085" stroke-width="2"/>
<line y1="-1" x2="12.4557" y2="-1" transform="matrix(-0.642788 -0.766044 -0.766044 0.642788 180.707 121.275)" stroke="#667085" stroke-width="2"/>
<line y1="-1" x2="12.4557" y2="-1" transform="matrix(-0.766044 -0.642788 -0.642788 0.766044 153.832 120.497)" stroke="#667085" stroke-width="2"/>
<line y1="-1" x2="12.4557" y2="-1" transform="matrix(-0.866025 -0.5 -0.5 0.866025 126.738 119.329)" stroke="#667085" stroke-width="2"/>
<line y1="-1" x2="12.4557" y2="-1" transform="matrix(-0.939693 -0.34202 -0.34202 0.939693 99.4023 118.551)" stroke="#667085" stroke-width="2"/>
<line y1="-1" x2="12.4557" y2="-1" transform="matrix(-0.984808 -0.173648 -0.173648 0.984808 71.7969 117.383)" stroke="#667085" stroke-width="2"/>
<line y1="-1" x2="12.4557" y2="-1" transform="matrix(0 -1 -1 0 286.805 122.443)" stroke="#667085" stroke-width="2"/>
<line y1="-1" x2="12.4557" y2="-1" transform="matrix(-0.173648 -0.984808 -0.984808 0.173648 260.398 122.443)" stroke="#667085" stroke-width="2"/>
<line y1="-1" x2="12.4557" y2="-1" transform="matrix(1 0 0 -1 28.3477 116.216)" stroke="#667085" stroke-width="2"/>
<line y1="-1" x2="12.4557" y2="-1" transform="matrix(0.984808 -0.173648 -0.173648 -0.984808 0.460938 117.383)" stroke="#667085" stroke-width="2"/>
<line y1="-1" x2="12.4557" y2="-1" transform="matrix(-0.34202 -0.939693 -0.939693 0.34202 261.973 143.852)" stroke="#667085" stroke-width="2"/>
<line y1="-1" x2="12.4557" y2="-1" transform="matrix(-0.5 -0.866025 -0.866025 0.5 235.422 143.462)" stroke="#667085" stroke-width="2"/>
<line y1="-1" x2="12.4557" y2="-1" transform="matrix(-0.642788 -0.766044 -0.766044 0.642788 208.73 143.073)" stroke="#667085" stroke-width="2"/>
<line y1="-1" x2="12.4557" y2="-1" transform="matrix(-0.766044 -0.642788 -0.642788 0.766044 181.855 142.295)" stroke="#667085" stroke-width="2"/>
<line y1="-1" x2="12.4557" y2="-1" transform="matrix(-0.866025 -0.5 -0.5 0.866025 154.766 141.127)" stroke="#667085" stroke-width="2"/>
<line y1="-1" x2="12.4557" y2="-1" transform="matrix(-0.939693 -0.34202 -0.34202 0.939693 127.43 140.349)" stroke="#667085" stroke-width="2"/>
<line y1="-1" x2="12.4557" y2="-1" transform="matrix(-0.984808 -0.173648 -0.173648 0.984808 99.8242 139.181)" stroke="#667085" stroke-width="2"/>
<line y1="-1" x2="12.4557" y2="-1" transform="matrix(-0.173648 -0.984808 -0.984808 0.173648 288.426 144.241)" stroke="#667085" stroke-width="2"/>
<line y1="-1" x2="12.4557" y2="-1" transform="matrix(1 0 0 -1 56.3711 138.013)" stroke="#667085" stroke-width="2"/>
<line y1="-1" x2="12.4557" y2="-1" transform="matrix(0.984808 -0.173648 -0.173648 -0.984808 28.4883 139.181)" stroke="#667085" stroke-width="2"/>
<line y1="-1" x2="12.4557" y2="-1" transform="matrix(0.939693 -0.34202 -0.34202 -0.939693 0.882812 140.349)" stroke="#667085" stroke-width="2"/>
<line y1="-1" x2="12.4557" y2="-1" transform="matrix(-0.34202 -0.939693 -0.939693 0.34202 289.996 165.649)" stroke="#667085" stroke-width="2"/>
<line y1="-1" x2="12.4557" y2="-1" transform="matrix(-0.5 -0.866025 -0.866025 0.5 263.449 165.26)" stroke="#667085" stroke-width="2"/>
<line y1="-1" x2="12.4557" y2="-1" transform="matrix(-0.642788 -0.766044 -0.766044 0.642788 236.758 164.87)" stroke="#667085" stroke-width="2"/>
<line y1="-1" x2="12.4557" y2="-1" transform="matrix(-0.766044 -0.642788 -0.642788 0.766044 209.883 164.092)" stroke="#667085" stroke-width="2"/>
<line y1="-1" x2="12.4557" y2="-1" transform="matrix(-0.866025 -0.5 -0.5 0.866025 182.789 162.924)" stroke="#667085" stroke-width="2"/>
<line y1="-1" x2="12.4557" y2="-1" transform="matrix(-0.939693 -0.34202 -0.34202 0.939693 155.453 162.146)" stroke="#667085" stroke-width="2"/>
<line y1="-1" x2="12.4557" y2="-1" transform="matrix(-0.984808 -0.173648 -0.173648 0.984808 127.848 160.979)" stroke="#667085" stroke-width="2"/>
<line y1="-1" x2="12.4557" y2="-1" transform="matrix(0.866025 -0.5 -0.5 -0.866025 1.57031 162.924)" stroke="#667085" stroke-width="2"/>
<line y1="-1" x2="12.4557" y2="-1" transform="matrix(1 0 0 -1 84.3945 159.811)" stroke="#667085" stroke-width="2"/>
<line y1="-1" x2="12.4557" y2="-1" transform="matrix(0.984808 -0.173648 -0.173648 -0.984808 56.5117 160.979)" stroke="#667085" stroke-width="2"/>
<line y1="-1" x2="12.4557" y2="-1" transform="matrix(0.939693 -0.34202 -0.34202 -0.939693 28.9102 162.146)" stroke="#667085" stroke-width="2"/>
<line y1="-1" x2="12.4557" y2="-1" transform="matrix(-0.5 -0.866025 -0.866025 0.5 291.473 187.058)" stroke="#667085" stroke-width="2"/>
<line y1="-1" x2="12.4557" y2="-1" transform="matrix(-0.642788 -0.766044 -0.766044 0.642788 264.781 186.668)" stroke="#667085" stroke-width="2"/>
<line y1="-1" x2="12.4557" y2="-1" transform="matrix(-0.766044 -0.642788 -0.642788 0.766044 237.906 185.89)" stroke="#667085" stroke-width="2"/>
<line y1="-1" x2="12.4557" y2="-1" transform="matrix(-0.866025 -0.5 -0.5 0.866025 210.816 184.722)" stroke="#667085" stroke-width="2"/>
<line y1="-1" x2="12.4557" y2="-1" transform="matrix(-0.939693 -0.34202 -0.34202 0.939693 183.48 183.943)" stroke="#667085" stroke-width="2"/>
<line y1="-1" x2="12.4557" y2="-1" transform="matrix(-0.984808 -0.173648 -0.173648 0.984808 155.875 182.775)" stroke="#667085" stroke-width="2"/>
<line y1="-1" x2="12.4557" y2="-1" transform="matrix(0.866025 -0.5 -0.5 -0.866025 29.5977 184.722)" stroke="#667085" stroke-width="2"/>
<line y1="-1" x2="12.4557" y2="-1" transform="matrix(0.766044 -0.642788 -0.642788 -0.766044 2.50391 185.89)" stroke="#667085" stroke-width="2"/>
<line y1="-1" x2="12.4557" y2="-1" transform="matrix(1 0 0 -1 112.422 181.607)" stroke="#667085" stroke-width="2"/>
<line y1="-1" x2="12.4557" y2="-1" transform="matrix(0.984808 -0.173648 -0.173648 -0.984808 84.5391 182.775)" stroke="#667085" stroke-width="2"/>
<line y1="-1" x2="12.4557" y2="-1" transform="matrix(0.939693 -0.34202 -0.34202 -0.939693 56.9336 183.943)" stroke="#667085" stroke-width="2"/>
<line y1="-1" x2="12.4557" y2="-1" transform="matrix(-0.642788 -0.766044 -0.766044 0.642788 292.809 208.466)" stroke="#667085" stroke-width="2"/>
<line y1="-1" x2="12.4557" y2="-1" transform="matrix(-0.766044 -0.642788 -0.642788 0.766044 265.934 207.687)" stroke="#667085" stroke-width="2"/>
<line y1="-1" x2="12.4557" y2="-1" transform="matrix(-0.866025 -0.5 -0.5 0.866025 238.84 206.52)" stroke="#667085" stroke-width="2"/>
<line y1="-1" x2="12.4557" y2="-1" transform="matrix(-0.939693 -0.34202 -0.34202 0.939693 211.504 205.741)" stroke="#667085" stroke-width="2"/>
<line y1="-1" x2="12.4557" y2="-1" transform="matrix(-0.984808 -0.173648 -0.173648 0.984808 183.898 204.573)" stroke="#667085" stroke-width="2"/>
<line y1="-1" x2="12.4557" y2="-1" transform="matrix(0.866025 -0.5 -0.5 -0.866025 57.6211 206.52)" stroke="#667085" stroke-width="2"/>
<line y1="-1" x2="12.4557" y2="-1" transform="matrix(0.766044 -0.642788 -0.642788 -0.766044 30.5312 207.687)" stroke="#667085" stroke-width="2"/>
<line y1="-1" x2="12.4557" y2="-1" transform="matrix(0.642788 -0.766044 -0.766044 -0.642788 3.65625 208.466)" stroke="#667085" stroke-width="2"/>
<line y1="-1" x2="12.4557" y2="-1" transform="matrix(1 0 0 -1 140.445 203.405)" stroke="#667085" stroke-width="2"/>
<line y1="-1" x2="12.4557" y2="-1" transform="matrix(0.984808 -0.173648 -0.173648 -0.984808 112.562 204.573)" stroke="#667085" stroke-width="2"/>
<line y1="-1" x2="12.4557" y2="-1" transform="matrix(0.939693 -0.34202 -0.34202 -0.939693 84.957 205.741)" stroke="#667085" stroke-width="2"/>
<line y1="-1" x2="12.4557" y2="-1" transform="matrix(-0.766044 -0.642788 -0.642788 0.766044 293.957 229.484)" stroke="#667085" stroke-width="2"/>
<line y1="-1" x2="12.4557" y2="-1" transform="matrix(-0.866025 -0.5 -0.5 0.866025 266.867 228.316)" stroke="#667085" stroke-width="2"/>
<line y1="-1" x2="12.4557" y2="-1" transform="matrix(-0.939693 -0.34202 -0.34202 0.939693 239.531 227.538)" stroke="#667085" stroke-width="2"/>
<line y1="-1" x2="12.4557" y2="-1" transform="matrix(-0.984808 -0.173648 -0.173648 0.984808 211.926 226.37)" stroke="#667085" stroke-width="2"/>
<line y1="-1" x2="12.4557" y2="-1" transform="matrix(0.866025 -0.5 -0.5 -0.866025 85.6484 228.316)" stroke="#667085" stroke-width="2"/>
<line y1="-1" x2="12.4557" y2="-1" transform="matrix(0.766044 -0.642788 -0.642788 -0.766044 58.5547 229.484)" stroke="#667085" stroke-width="2"/>
<line y1="-1" x2="12.4557" y2="-1" transform="matrix(0.642788 -0.766044 -0.766044 -0.642788 31.6836 230.263)" stroke="#667085" stroke-width="2"/>
<line y1="-1" x2="12.4557" y2="-1" transform="matrix(0.5 -0.866025 -0.866025 -0.5 4.98828 230.652)" stroke="#667085" stroke-width="2"/>
<line y1="-1" x2="12.4557" y2="-1" transform="matrix(1 0 0 -1 168.473 225.203)" stroke="#667085" stroke-width="2"/>
<line y1="-1" x2="12.4557" y2="-1" transform="matrix(0.984808 -0.173648 -0.173648 -0.984808 140.59 226.37)" stroke="#667085" stroke-width="2"/>
<line y1="-1" x2="12.4557" y2="-1" transform="matrix(0.939693 -0.34202 -0.34202 -0.939693 112.984 227.538)" stroke="#667085" stroke-width="2"/>
<line y1="-1" x2="12.4557" y2="-1" transform="matrix(-0.866025 -0.5 -0.5 0.866025 294.891 250.114)" stroke="#667085" stroke-width="2"/>
<line y1="-1" x2="12.4557" y2="-1" transform="matrix(-0.939693 -0.34202 -0.34202 0.939693 267.555 249.336)" stroke="#667085" stroke-width="2"/>
<line y1="-1" x2="12.4557" y2="-1" transform="matrix(-0.984808 -0.173648 -0.173648 0.984808 239.949 248.168)" stroke="#667085" stroke-width="2"/>
<line y1="-1" x2="12.4557" y2="-1" transform="matrix(0.866025 -0.5 -0.5 -0.866025 113.672 250.114)" stroke="#667085" stroke-width="2"/>
<line y1="-1" x2="12.4557" y2="-1" transform="matrix(0.766044 -0.642788 -0.642788 -0.766044 86.582 251.282)" stroke="#667085" stroke-width="2"/>
<line y1="-1" x2="12.4557" y2="-1" transform="matrix(0.642788 -0.766044 -0.766044 -0.642788 59.707 252.061)" stroke="#667085" stroke-width="2"/>
<line y1="-1" x2="12.4557" y2="-1" transform="matrix(0.5 -0.866025 -0.866025 -0.5 33.0156 252.449)" stroke="#667085" stroke-width="2"/>
<line y1="-1" x2="12.4557" y2="-1" transform="matrix(0.34202 -0.939693 -0.939693 -0.34202 6.46484 252.839)" stroke="#667085" stroke-width="2"/>
<line y1="-1" x2="12.4557" y2="-1" transform="matrix(1 0 0 -1 196.496 247)" stroke="#667085" stroke-width="2"/>
<line y1="-1" x2="12.4557" y2="-1" transform="matrix(0.984808 -0.173648 -0.173648 -0.984808 168.613 248.168)" stroke="#667085" stroke-width="2"/>
<line y1="-1" x2="12.4557" y2="-1" transform="matrix(0.939693 -0.34202 -0.34202 -0.939693 141.008 249.336)" stroke="#667085" stroke-width="2"/>
<line y1="-1" x2="12.4557" y2="-1" transform="matrix(-0.939693 -0.34202 -0.34202 0.939693 295.582 271.133)" stroke="#667085" stroke-width="2"/>
<line y1="-1" x2="12.4557" y2="-1" transform="matrix(-0.984808 -0.173648 -0.173648 0.984808 267.977 269.966)" stroke="#667085" stroke-width="2"/>
<line y1="-1" x2="12.4557" y2="-1" transform="matrix(0.866025 -0.5 -0.5 -0.866025 141.699 271.912)" stroke="#667085" stroke-width="2"/>
<line y1="-1" x2="12.4557" y2="-1" transform="matrix(0.766044 -0.642788 -0.642788 -0.766044 114.605 273.079)" stroke="#667085" stroke-width="2"/>
<line y1="-1" x2="12.4557" y2="-1" transform="matrix(0.642788 -0.766044 -0.766044 -0.642788 87.7305 273.857)" stroke="#667085" stroke-width="2"/>
<line y1="-1" x2="12.4557" y2="-1" transform="matrix(0.5 -0.866025 -0.866025 -0.5 61.0391 274.247)" stroke="#667085" stroke-width="2"/>
<line y1="-1" x2="12.4557" y2="-1" transform="matrix(0.34202 -0.939693 -0.939693 -0.34202 34.4922 274.637)" stroke="#667085" stroke-width="2"/>
<line y1="-1" x2="12.4557" y2="-1" transform="matrix(0.173648 -0.984808 -0.984808 -0.173648 8.03906 275.025)" stroke="#667085" stroke-width="2"/>
<line y1="-1" x2="12.4557" y2="-1" transform="matrix(1 0 0 -1 224.523 268.798)" stroke="#667085" stroke-width="2"/>
<line y1="-1" x2="12.4557" y2="-1" transform="matrix(0.984808 -0.173648 -0.173648 -0.984808 196.641 269.966)" stroke="#667085" stroke-width="2"/>
<line y1="-1" x2="12.4557" y2="-1" transform="matrix(0.939693 -0.34202 -0.34202 -0.939693 169.035 271.133)" stroke="#667085" stroke-width="2"/>
<line y1="-1" x2="12.4557" y2="-1" transform="matrix(-0.984808 -0.173648 -0.173648 0.984808 296 291.763)" stroke="#667085" stroke-width="2"/>
<line y1="-1" x2="12.4557" y2="-1" transform="matrix(0.866025 -0.5 -0.5 -0.866025 169.723 293.709)" stroke="#667085" stroke-width="2"/>
<line y1="-1" x2="12.4557" y2="-1" transform="matrix(0.766044 -0.642788 -0.642788 -0.766044 142.633 294.877)" stroke="#667085" stroke-width="2"/>
<line y1="-1" x2="12.4557" y2="-1" transform="matrix(0.642788 -0.766044 -0.766044 -0.642788 115.758 295.655)" stroke="#667085" stroke-width="2"/>
<line y1="-1" x2="12.4557" y2="-1" transform="matrix(0.5 -0.866025 -0.866025 -0.5 89.0664 296.045)" stroke="#667085" stroke-width="2"/>
<line y1="-1" x2="12.4557" y2="-1" transform="matrix(0.34202 -0.939693 -0.939693 -0.34202 62.5156 296.434)" stroke="#667085" stroke-width="2"/>
<line y1="-1" x2="12.4557" y2="-1" transform="matrix(0.173648 -0.984808 -0.984808 -0.173648 36.0625 296.823)" stroke="#667085" stroke-width="2"/>
<line y1="-1" x2="12.4557" y2="-1" transform="matrix(0 -1 -1 0 9.66016 296.823)" stroke="#667085" stroke-width="2"/>
<line y1="-1" x2="12.4557" y2="-1" transform="matrix(1 0 0 -1 252.547 290.595)" stroke="#667085" stroke-width="2"/>
<line y1="-1" x2="12.4557" y2="-1" transform="matrix(0.984808 -0.173648 -0.173648 -0.984808 224.664 291.763)" stroke="#667085" stroke-width="2"/>
<line y1="-1" x2="12.4557" y2="-1" transform="matrix(0.939693 -0.34202 -0.34202 -0.939693 197.059 292.931)" stroke="#667085" stroke-width="2"/>
<line y1="-1" x2="12.4557" y2="-1" transform="matrix(0.866025 -0.5 -0.5 -0.866025 197.75 315.507)" stroke="#667085" stroke-width="2"/>
<line y1="-1" x2="12.4557" y2="-1" transform="matrix(0.766044 -0.642788 -0.642788 -0.766044 170.656 316.674)" stroke="#667085" stroke-width="2"/>
<line y1="-1" x2="12.4557" y2="-1" transform="matrix(0.642788 -0.766044 -0.766044 -0.642788 143.781 317.453)" stroke="#667085" stroke-width="2"/>
<line y1="-1" x2="12.4557" y2="-1" transform="matrix(0.5 -0.866025 -0.866025 -0.5 117.09 317.842)" stroke="#667085" stroke-width="2"/>
<line y1="-1" x2="12.4557" y2="-1" transform="matrix(0.34202 -0.939693 -0.939693 -0.34202 90.543 318.231)" stroke="#667085" stroke-width="2"/>
<line y1="-1" x2="12.4557" y2="-1" transform="matrix(0.173648 -0.984808 -0.984808 -0.173648 64.0898 318.62)" stroke="#667085" stroke-width="2"/>
<line y1="-1" x2="12.4557" y2="-1" transform="matrix(0 -1 -1 0 37.6875 318.62)" stroke="#667085" stroke-width="2"/>
<line y1="-1" x2="12.4557" y2="-1" transform="matrix(-0.173648 -0.984808 -0.984808 0.173648 11.2812 318.62)" stroke="#667085" stroke-width="2"/>
<line y1="-1" x2="12.4557" y2="-1" transform="matrix(1 0 0 -1 280.574 312.393)" stroke="#667085" stroke-width="2"/>
<line y1="-1" x2="12.4557" y2="-1" transform="matrix(0.984808 -0.173648 -0.173648 -0.984808 252.691 313.561)" stroke="#667085" stroke-width="2"/>
<line y1="-1" x2="12.4557" y2="-1" transform="matrix(0.939693 -0.34202 -0.34202 -0.939693 225.086 314.729)" stroke="#667085" stroke-width="2"/>
<line y1="-1" x2="12.4557" y2="-1" transform="matrix(-0.34202 -0.939693 -0.939693 0.34202 12.8555 340.028)" stroke="#667085" stroke-width="2"/>
<line y1="-1" x2="12.4557" y2="-1" transform="matrix(0.866025 -0.5 -0.5 -0.866025 225.773 337.304)" stroke="#667085" stroke-width="2"/>
<line y1="-1" x2="12.4557" y2="-1" transform="matrix(0.766044 -0.642788 -0.642788 -0.766044 198.684 338.472)" stroke="#667085" stroke-width="2"/>
<line y1="-1" x2="12.4557" y2="-1" transform="matrix(0.642788 -0.766044 -0.766044 -0.642788 171.809 339.25)" stroke="#667085" stroke-width="2"/>
<line y1="-1" x2="12.4557" y2="-1" transform="matrix(0.5 -0.866025 -0.866025 -0.5 145.117 339.64)" stroke="#667085" stroke-width="2"/>
<line y1="-1" x2="12.4557" y2="-1" transform="matrix(0.34202 -0.939693 -0.939693 -0.34202 118.566 340.028)" stroke="#667085" stroke-width="2"/>
<line y1="-1" x2="12.4557" y2="-1" transform="matrix(0.173648 -0.984808 -0.984808 -0.173648 92.1133 340.418)" stroke="#667085" stroke-width="2"/>
<line y1="-1" x2="12.4557" y2="-1" transform="matrix(0 -1 -1 0 65.7109 340.418)" stroke="#667085" stroke-width="2"/>
<line y1="-1" x2="12.4557" y2="-1" transform="matrix(-0.173648 -0.984808 -0.984808 0.173648 39.3086 340.418)" stroke="#667085" stroke-width="2"/>
<line y1="-1" x2="12.4557" y2="-1" transform="matrix(0.984808 -0.173648 -0.173648 -0.984808 280.715 335.357)" stroke="#667085" stroke-width="2"/>
<line y1="-1" x2="12.4557" y2="-1" transform="matrix(0.939693 -0.34202 -0.34202 -0.939693 253.109 336.525)" stroke="#667085" stroke-width="2"/>
<line y1="-1" x2="12.4557" y2="-1" transform="matrix(-0.34202 -0.939693 -0.939693 0.34202 40.8789 361.826)" stroke="#667085" stroke-width="2"/>
<line y1="-1" x2="12.4557" y2="-1" transform="matrix(-0.5 -0.866025 -0.866025 0.5 14.332 361.437)" stroke="#667085" stroke-width="2"/>
<line y1="-1" x2="12.4557" y2="-1" transform="matrix(0.866025 -0.5 -0.5 -0.866025 253.801 359.102)" stroke="#667085" stroke-width="2"/>
<line y1="-1" x2="12.4557" y2="-1" transform="matrix(0.766044 -0.642788 -0.642788 -0.766044 226.707 360.27)" stroke="#667085" stroke-width="2"/>
<line y1="-1" x2="12.4557" y2="-1" transform="matrix(0.642788 -0.766044 -0.766044 -0.642788 199.832 361.048)" stroke="#667085" stroke-width="2"/>
<line y1="-1" x2="12.4557" y2="-1" transform="matrix(0.5 -0.866025 -0.866025 -0.5 173.141 361.437)" stroke="#667085" stroke-width="2"/>
<line y1="-1" x2="12.4557" y2="-1" transform="matrix(0.34202 -0.939693 -0.939693 -0.34202 146.594 361.826)" stroke="#667085" stroke-width="2"/>
<line y1="-1" x2="12.4557" y2="-1" transform="matrix(0.173648 -0.984808 -0.984808 -0.173648 120.141 362.216)" stroke="#667085" stroke-width="2"/>
<line y1="-1" x2="12.4557" y2="-1" transform="matrix(0 -1 -1 0 93.7383 362.216)" stroke="#667085" stroke-width="2"/>
<line y1="-1" x2="12.4557" y2="-1" transform="matrix(-0.173648 -0.984808 -0.984808 0.173648 67.332 362.216)" stroke="#667085" stroke-width="2"/>
<line y1="-1" x2="12.4557" y2="-1" transform="matrix(0.939693 -0.34202 -0.34202 -0.939693 281.137 358.323)" stroke="#667085" stroke-width="2"/>
<line y1="-1" x2="12.4557" y2="-1" transform="matrix(-0.34202 -0.939693 -0.939693 0.34202 68.9062 383.624)" stroke="#667085" stroke-width="2"/>
<line y1="-1" x2="12.4557" y2="-1" transform="matrix(-0.5 -0.866025 -0.866025 0.5 42.3555 383.234)" stroke="#667085" stroke-width="2"/>
<line y1="-1" x2="12.4557" y2="-1" transform="matrix(-0.642788 -0.766044 -0.766044 0.642788 15.6641 382.845)" stroke="#667085" stroke-width="2"/>
<line y1="-1" x2="12.4557" y2="-1" transform="matrix(0.866025 -0.5 -0.5 -0.866025 281.824 380.899)" stroke="#667085" stroke-width="2"/>
<line y1="-1" x2="12.4557" y2="-1" transform="matrix(0.766044 -0.642788 -0.642788 -0.766044 254.734 382.066)" stroke="#667085" stroke-width="2"/>
<line y1="-1" x2="12.4557" y2="-1" transform="matrix(0.642788 -0.766044 -0.766044 -0.642788 227.859 382.845)" stroke="#667085" stroke-width="2"/>
<line y1="-1" x2="12.4557" y2="-1" transform="matrix(0.5 -0.866025 -0.866025 -0.5 201.168 383.234)" stroke="#667085" stroke-width="2"/>
<line y1="-1" x2="12.4557" y2="-1" transform="matrix(0.34202 -0.939693 -0.939693 -0.34202 174.617 383.624)" stroke="#667085" stroke-width="2"/>
<line y1="-1" x2="12.4557" y2="-1" transform="matrix(0.173648 -0.984808 -0.984808 -0.173648 148.164 384.013)" stroke="#667085" stroke-width="2"/>
<line y1="-1" x2="12.4557" y2="-1" transform="matrix(0 -1 -1 0 121.762 384.013)" stroke="#667085" stroke-width="2"/>
<line y1="-1" x2="12.4557" y2="-1" transform="matrix(-0.173648 -0.984808 -0.984808 0.173648 95.3594 384.013)" stroke="#667085" stroke-width="2"/>
<line y1="-1" x2="12.4557" y2="-1" transform="matrix(-0.34202 -0.939693 -0.939693 0.34202 96.9297 405.421)" stroke="#667085" stroke-width="2"/>
<line y1="-1" x2="12.4557" y2="-1" transform="matrix(-0.5 -0.866025 -0.866025 0.5 70.3828 405.032)" stroke="#667085" stroke-width="2"/>
<line y1="-1" x2="12.4557" y2="-1" transform="matrix(-0.642788 -0.766044 -0.766044 0.642788 43.6914 404.643)" stroke="#667085" stroke-width="2"/>
<line y1="-1" x2="12.4557" y2="-1" transform="matrix(-0.766044 -0.642788 -0.642788 0.766044 16.8164 403.864)" stroke="#667085" stroke-width="2"/>
<line y1="-1" x2="12.4557" y2="-1" transform="matrix(0.766044 -0.642788 -0.642788 -0.766044 282.758 403.864)" stroke="#667085" stroke-width="2"/>
<line y1="-1" x2="12.4557" y2="-1" transform="matrix(0.642788 -0.766044 -0.766044 -0.642788 255.883 404.643)" stroke="#667085" stroke-width="2"/>
<line y1="-1" x2="12.4557" y2="-1" transform="matrix(0.5 -0.866025 -0.866025 -0.5 229.191 405.032)" stroke="#667085" stroke-width="2"/>
<line y1="-1" x2="12.4557" y2="-1" transform="matrix(0.34202 -0.939693 -0.939693 -0.34202 202.645 405.421)" stroke="#667085" stroke-width="2"/>
<line y1="-1" x2="12.4557" y2="-1" transform="matrix(0.173648 -0.984808 -0.984808 -0.173648 176.191 405.811)" stroke="#667085" stroke-width="2"/>
<line y1="-1" x2="12.4557" y2="-1" transform="matrix(0 -1 -1 0 149.789 405.811)" stroke="#667085" stroke-width="2"/>
<line y1="-1" x2="12.4557" y2="-1" transform="matrix(-0.173648 -0.984808 -0.984808 0.173648 123.383 405.811)" stroke="#667085" stroke-width="2"/>
</g>
</svg>
